<svg xmlns="http://www.w3.org/2000/svg" viewBox="0 0 7966 1144"><title>Веб-стандарты</title><defs><linearGradient id="a" gradientUnits="userSpaceOnUse" x1="984" y1="572" x2="984" y2="316"><stop offset="0" stop-color="#a8cd4b"/><stop offset=".9" stop-color="#98c55b"/></linearGradient><linearGradient id="b" gradientUnits="userSpaceOnUse" x1="984" y1="316" x2="522" y2="60"><stop offset="0" stop-color="#98c55b"/><stop offset=".9" stop-color="#79b580"/></linearGradient><linearGradient id="c" gradientUnits="userSpaceOnUse" x1="522" y1="60" x2="60" y2="316"><stop offset="0" stop-color="#79b580"/><stop offset=".8" stop-color="#5aa5a7"/></linearGradient><linearGradient id="d" gradientUnits="userSpaceOnUse" x1="60" y1="316" x2="522" y2="572"><stop offset="0" stop-color="#5aa5a7"/><stop offset=".9" stop-color="#4a94b1"/></linearGradient><linearGradient id="e" gradientUnits="userSpaceOnUse" x1="522" y1="572" x2="522" y2="1084"><stop offset="0" stop-color="#4a94b1"/><stop offset=".8" stop-color="#49839f"/></linearGradient><linearGradient id="f" gradientUnits="userSpaceOnUse" x1="984" y1="828" x2="522" y2="1084"><stop offset="0" stop-color="#466d85"/><stop offset=".7" stop-color="#49839f"/></linearGradient><linearGradient id="g" gradientUnits="userSpaceOnUse" x1="522" y1="1084" x2="60" y2="828"><stop offset=".3" stop-color="#49839f"/><stop offset=".9" stop-color="#47728b"/></linearGradient><linearGradient id="h" gradientUnits="userSpaceOnUse" x1="60" y1="828" x2="60" y2="572"><stop offset="0" stop-color="#47728b"/><stop offset="1" stop-color="#456a81"/></linearGradient></defs><g stroke-width="120" stroke-linecap="round" stroke-linejoin="round" fill="none"><path stroke="url(#a)" d="M984 572V316"/><path stroke="url(#b)" d="M984 316L522 60"/><path stroke="url(#c)" d="M522 60L60 316"/><path stroke="url(#d)" d="M60 316l462 256"/><path stroke="url(#e)" d="M522 572v512"/><path stroke="url(#f)" d="M984 828l-462 256"/><path stroke="url(#g)" d="M522 1084L60 828"/><path stroke="url(#h)" d="M60 828V572"/></g><path fill="#416e87" d="M1638.5 896.4c-33.8 0-68-1.1-102.5-3.2-34.5-2.2-64.6-6.6-90.5-13.4V258.6c13.5-2.5 28-4.8 43.4-6.9 15.4-2.1 31.1-3.8 47.1-5.1 16-1.2 31.8-2.1 47.5-2.8 15.7-.6 30.6-.9 44.8-.9 38.8 0 74.8 2.9 108 8.8s62 15.5 86.3 29.1c24.3 13.5 43.2 31.4 56.8 53.5 13.5 22.2 20.3 49.5 20.3 82.1 0 30.2-7.2 56-21.7 77.5s-34.6 38.8-60.5 51.7c38.8 12.9 67.4 32 85.8 57.2 18.5 25.2 27.7 57.2 27.7 96 0 65.8-24 115.2-72 148.1-47.9 33-121.5 49.5-220.5 49.5zM1560 509.7h82.1c44.3 0 79.1-6.3 104.3-18.9 25.2-12.6 37.8-35.2 37.8-67.8 0-30.8-13.1-52.6-39.2-65.5-26.2-12.9-60.2-19.4-102-19.4-17.9 0-33.7.3-47.5.9-13.8.6-25.7 1.5-35.5 2.8v167.9zm0 91.3v194.8c12.9 1.2 26.8 2.2 41.5 2.8 14.8.6 28.3.9 40.6.9 24 0 46.3-1.5 66.9-4.6 20.6-3.1 38.4-8.5 53.5-16.2 15.1-7.7 27.1-18 36-30.9 8.9-12.9 13.4-29.5 13.4-49.8 0-36.3-13.2-61.5-39.7-75.7-26.5-14.1-63.1-21.2-109.8-21.2H1560zm447.1 49c0-42.5 6.3-79.7 18.9-111.7 12.6-32 29.4-58.6 50.3-79.8 20.9-21.2 44.9-37.2 72-48 27.1-10.8 54.8-16.2 83.1-16.2 66.5 0 118.3 20.6 155.5 61.8 37.2 41.2 55.8 102.8 55.8 184.6 0 6.2-.2 13.1-.5 20.8-.3 7.7-.8 14.6-1.4 20.8h-318.4c3.1 38.8 16.8 68.8 41.1 90 24.3 21.2 59.5 31.8 105.7 31.8 27.1 0 51.8-2.5 74.3-7.4s40.2-10.2 53.1-15.7l14.8 91.4c-6.2 3.1-14.6 6.3-25.4 9.7-10.8 3.4-23.1 6.5-36.9 9.2-13.8 2.8-28.8 5.1-44.8 6.9-16 1.8-32.3 2.8-48.9 2.8-42.5 0-79.4-6.3-110.8-18.9-31.4-12.6-57.2-30.1-77.5-52.6-20.3-22.5-35.4-48.9-45.2-79.4-9.9-30.5-14.8-63.8-14.8-100.1zm324-49.9c0-15.4-2.2-30-6.5-43.8-4.3-13.8-10.6-25.8-18.9-36-8.3-10.2-18.5-18.1-30.5-24-12-5.8-26.3-8.8-42.9-8.8-17.2 0-32.3 3.2-45.2 9.7s-23.9 14.9-32.8 25.4c-8.9 10.5-15.8 22.5-20.8 36-4.9 13.5-8.3 27.4-10.2 41.5h207.8zm627.4-329.5c-6.2 1.2-12.8 2.5-19.8 3.7-7.1 1.2-15.5 2.5-25.4 3.7-9.9 1.2-21.4 2.6-34.6 4.2-13.2 1.5-28.5 3.2-45.7 5.1-26.5 3.1-50.2 8.2-71.1 15.2-20.9 7.1-39.1 17.2-54.5 30.5-15.4 13.2-28 30-37.8 50.3-9.8 20.3-16.9 44.9-21.2 73.8 19.1-12.3 39.8-21.8 62.3-28.6 22.5-6.8 44.4-10.2 66-10.2 64 0 114.8 20.3 152.3 60.9 37.5 40.6 56.3 99.4 56.3 176.3 0 36.9-5.2 70.5-15.7 100.6-10.5 30.2-25.5 56-45.2 77.5-19.7 21.5-43.4 38.3-71.1 50.3-27.7 12-59.1 18-94.1 18-43.7 0-80.3-7.2-109.8-21.7s-53.2-35.1-71.1-61.8c-17.9-26.8-30.8-58.9-38.8-96.5-8-37.5-12-79.4-12-125.5 0-60.3 5.1-113.7 15.2-160.1 10.2-46.5 26.8-86.3 49.8-119.5 23.1-33.2 53.2-60.1 90.5-80.8 37.2-20.6 82.6-34.9 136.1-42.9 27.7-4.3 50.9-7.7 69.7-10.2 18.8-2.5 37.7-5.8 56.8-10.2l12.9 97.9zm-313.9 284.3c-1.2 8-1.8 17.7-1.8 29.1v31.8c0 27.7 1.8 53.2 5.5 76.6 3.7 23.4 10.2 43.4 19.4 60s21.2 29.5 36 38.8c14.8 9.2 33.2 13.8 55.4 13.8 19.1 0 35.7-3.7 49.8-11.1 14.1-7.4 25.8-17.8 35.1-31.4 9.2-13.5 16.2-29.4 20.8-47.5 4.6-18.1 6.9-38 6.9-59.5 0-18.5-2-36.1-6-53.1-4-16.9-10.5-32-19.4-45.2-8.9-13.2-20.8-23.8-35.5-31.8-14.8-8-32.9-12-54.5-12-20.9 0-41.7 3.7-62.3 11.1-20.6 7.3-37.1 17.5-49.4 30.4zm428.3 19.4h248.3v102.5h-248.3V574.3zm336 73.8c0-35.7 5.5-69.1 16.6-100.1 11.1-31.1 26.9-58 47.5-80.8 20.6-22.8 45.7-40.6 75.2-53.5s62.8-19.4 99.7-19.4c45.5 0 88.6 8.3 129.2 24.9l-24 91.4c-12.9-5.5-27.5-10.2-43.8-13.8-16.3-3.7-33.7-5.5-52.1-5.5-43.7 0-76.9 13.7-99.7 41.1-22.8 27.4-34.2 66-34.2 115.8 0 48 10.8 86 32.3 114 21.5 28 57.8 42 108.9 42 19.1 0 37.8-1.8 56.3-5.5s34.5-8.3 48-13.8l15.7 92.3c-12.3 6.2-30.9 11.7-55.8 16.6-24.9 4.9-50.6 7.4-77.1 7.4-41.2 0-77.1-6.3-107.5-18.9-30.5-12.6-55.7-30.1-75.7-52.6s-34.9-49.2-44.8-80.3c-9.7-31.3-14.7-65-14.7-101.3zm843.6-148.6h-156V889h-111.7V499.5h-155.1v-93.2h422.7v93.2zm228-105.2c36.9 0 68 4.6 93.2 13.8 25.2 9.2 45.4 22.2 60.5 38.8 15.1 16.6 25.8 36.8 32.3 60.5 6.5 23.7 9.7 49.7 9.7 78V878c-17.2 3.7-43.2 8.2-78 13.4-34.8 5.2-74 7.8-117.7 7.8-28.9 0-55.4-2.8-79.4-8.3s-44.5-14.5-61.4-26.8-30.2-28.3-39.7-48c-9.5-19.7-14.3-44-14.3-72.9 0-27.7 5.4-51.1 16.2-70.1 10.8-19.1 25.4-34.6 43.8-46.6s39.8-20.6 64.1-25.8c24.3-5.2 49.7-7.8 76.1-7.8 12.3 0 25.2.8 38.8 2.3 13.5 1.5 28 4.2 43.4 7.8v-18.5c0-12.9-1.5-25.2-4.6-36.9-3.1-11.7-8.5-22-16.2-30.9-7.7-8.9-17.9-15.8-30.5-20.8-12.6-4.9-28.5-7.4-47.5-7.4-25.8 0-49.5 1.8-71.1 5.5-21.5 3.7-39.1 8-52.6 12.9l-13.8-90.5c14.1-4.9 34.8-9.8 61.8-14.8 27.2-4.8 56.2-7.3 86.9-7.3zm9.3 416.3c34.5 0 60.6-1.8 78.5-5.5V681.3c-6.2-1.8-15.1-3.7-26.8-5.5-11.7-1.8-24.6-2.8-38.8-2.8-12.3 0-24.8.9-37.4 2.8-12.6 1.8-24 5.2-34.2 10.2-10.2 4.9-18.3 11.9-24.5 20.8-6.2 8.9-9.2 20.2-9.2 33.7 0 26.5 8.3 44.8 24.9 54.9 16.7 10.1 39.1 15.2 67.5 15.2zm713.1 78.4h-111.7V686.9h-181.8V889h-111.7V406.3h111.7v188.3h181.8V406.3h111.7V889zm74.1-91.4h55.4c19.1-25.2 34-53.4 44.8-84.5 10.8-31.1 18.6-63.7 23.5-97.8 4.9-34.2 8-69.1 9.2-104.8 1.2-35.7 2.1-70.5 2.8-104.3h346.1v391.4h73.8v228h-99.7V889h-357.2v136.6H5277v-228zm370.1 0v-299H5516c-1.2 25.2-2.8 50.9-4.6 77.1-1.8 26.2-5.2 52-10.2 77.5-4.9 25.5-11.5 50.5-19.8 74.8-8.3 24.3-19.2 47.5-32.8 69.7h198.5zm438.5-403.3c36.9 0 68 4.6 93.2 13.8 25.2 9.2 45.4 22.2 60.5 38.8 15.1 16.6 25.8 36.8 32.3 60.5 6.5 23.7 9.7 49.7 9.7 78V878c-17.2 3.7-43.2 8.2-78 13.4-34.8 5.2-74 7.8-117.7 7.8-28.9 0-55.4-2.8-79.4-8.3s-44.5-14.5-61.4-26.8-30.2-28.3-39.7-48c-9.5-19.7-14.3-44-14.3-72.9 0-27.7 5.4-51.1 16.2-70.1 10.8-19.1 25.4-34.6 43.8-46.6s39.8-20.6 64.1-25.8c24.3-5.2 49.7-7.8 76.1-7.8 12.3 0 25.2.8 38.8 2.3 13.5 1.5 28 4.2 43.4 7.8v-18.5c0-12.9-1.5-25.2-4.6-36.9-3.1-11.7-8.5-22-16.2-30.9-7.7-8.9-17.9-15.8-30.5-20.8-12.6-4.9-28.5-7.4-47.5-7.4-25.8 0-49.5 1.8-71.1 5.5-21.5 3.7-39.1 8-52.6 12.9l-13.8-90.5c14.1-4.9 34.8-9.8 61.8-14.8 27.2-4.8 56.1-7.3 86.9-7.3zm9.2 416.3c34.5 0 60.6-1.8 78.5-5.5V681.3c-6.2-1.8-15.1-3.7-26.8-5.5-11.7-1.8-24.6-2.8-38.8-2.8-12.3 0-24.8.9-37.4 2.8-12.6 1.8-24 5.2-34.2 10.2-10.2 4.9-18.3 11.9-24.5 20.8-6.2 8.9-9.2 20.2-9.2 33.7 0 26.5 8.3 44.8 24.9 54.9 16.8 10.1 39.2 15.2 67.5 15.2zm742.1-162.5c0 36.9-4.8 70.8-14.3 101.5-9.5 30.8-23.2 57.2-41.1 79.4-17.9 22.2-40.2 39.4-66.9 51.7-26.8 12.3-57.1 18.5-90.9 18.5-22.8 0-43.7-2.8-62.8-8.3-19.1-5.5-34.8-11.7-47.1-18.5v187.4h-111.7V422c22.8-6.1 50.8-12 84-17.5s68.3-8.3 105.2-8.3c38.1 0 72.3 5.9 102.5 17.5 30.1 11.7 55.8 28.5 77.1 50.3 21.2 21.8 37.5 48.3 48.9 79.4 11.4 31 17.1 65.9 17.1 104.7zm-114.4 1.9c0-49.8-11.2-88.6-33.7-116.3-22.5-27.7-58.6-41.5-108.5-41.5-10.5 0-21.4.5-32.8 1.4-11.4.9-22.6 2.9-33.7 6v276c9.8 6.8 22.9 13.1 39.2 18.9 16.3 5.9 33.7 8.8 52.1 8.8 40.6 0 70.3-13.8 89.1-41.5 18.9-27.9 28.3-65.1 28.3-111.8zM7304 499.5h-156V889h-111.7V499.5h-155.1v-93.2H7304v93.2zm185.8 84.9c9.2-2.5 22.6-4.6 40.2-6.5 17.5-1.8 34.6-2.8 51.2-2.8 26.5 0 51.5 3.1 75.2 9.2 23.7 6.2 44.3 15.8 61.8 29.1 17.5 13.2 31.4 30.2 41.5 50.8 10.2 20.6 15.2 45.1 15.2 73.4 0 28.9-4.9 53.5-14.8 73.8-9.9 20.3-23.7 36.9-41.5 49.8-17.9 12.9-39.2 22.5-64.1 28.6s-52.5 9.2-82.6 9.2c-35.1 0-68.2-1.8-99.2-5.5-31.1-3.7-62.6-9.2-94.6-16.6V406.3h111.7v178.1zm79.3 227.1c28.9 0 51.8-6 68.8-18 16.9-12 25.4-31.2 25.4-57.7 0-13.5-2.8-24.9-8.3-34.2-5.5-9.2-13.1-16.8-22.6-22.6-9.5-5.8-20.3-10-32.3-12.5-12-2.5-24.5-3.7-37.4-3.7-11.7 0-24.5.5-38.3 1.4-13.8.9-25.4 2.6-34.6 5.1v137.5c8 1.2 19.7 2.3 35.1 3.2 15.3 1 30.1 1.5 44.2 1.5zM7966 889h-111.7V406.3H7966V889z"/></svg>
